# xmcd
#
# Track frame offsets: 
#        150
#        21010
#        35545
#        54527
#        68672
#        91640
#        110570
#        128662
#        146557
#        166545
#        183890
#
# Disc length: 2715 seconds
#
# Revision: 0
# Processed by: cddbd v1.5.2PL0 Copyright (c) Steve Scherf et al.
# Submitted via: ExactAudioCopy v0.95a4
#
DISCID=820a990b
DTITLE=Jessi Alexander - Honeysuckle Sweet
DYEAR=2005
DGENRE=Country
TTITLE0=Honeysuckle Sweet
TTITLE1=Make Me Stay Or Make Me Go
TTITLE2=This World Is Crazy
TTITLE3=I'd Run Right Back To You
TTITLE4=Unfulfilled
TTITLE5=Holdin' Back Your Love
TTITLE6=Can You Make It Feel Right
TTITLE7=Everywhere
TTITLE8=Reasons To Run
TTITLE9=The Long Way
TTITLE10=Canyon Prayer
EXTD=
EXTT0=
EXTT1=
EXTT2=
EXTT3=
EXTT4=
EXTT5=
EXTT6=
EXTT7=
EXTT8=
EXTT9=
EXTT10=
PLAYORDER=
